<svg width="1200" height="630" xmlns="http://www.w3.org/2000/svg">
  <defs>
    <linearGradient id="header" x1="0%" y1="0%" x2="100%" y2="0%">
      <stop offset="0%" stop-color="#D4603A"/>
      <stop offset="50%" stop-color="#E8875A"/>
      <stop offset="100%" stop-color="#D4A547"/>
    </linearGradient>
    <linearGradient id="bgGrad" x1="0%" y1="0%" x2="100%" y2="100%">
      <stop offset="0%" stop-color="#FFF6EE"/>
      <stop offset="100%" stop-color="#FFF0E0"/>
    </linearGradient>
  </defs>
  <rect width="1200" height="630" fill="url(#bgGrad)"/>
  <rect width="1200" height="12" fill="url(#header)"/>
  <rect y="618" width="1200" height="12" fill="url(#header)"/>
  <rect width="8" height="630" fill="url(#header)" opacity="0.4"/>
  <rect x="1192" width="8" height="630" fill="url(#header)" opacity="0.4"/>
  <text x="600" y="240" font-family="serif" font-size="96" font-weight="bold" fill="#C04020" text-anchor="middle">తెలుగు పంచాంగం</text>
  <text x="600" y="310" font-family="Georgia, serif" font-size="42" font-style="italic" fill="#6B3010" text-anchor="middle">Telugu Panchangam</text>
  <line x1="400" y1="345" x2="800" y2="345" stroke="#D4603A" stroke-width="2" opacity="0.5"/>
  <text x="600" y="400" font-family="Georgia, serif" font-size="28" fill="#8B4020" text-anchor="middle">Any city. Any date. Free forever.</text>
  <rect x="160" y="450" width="160" height="44" rx="22" fill="#D4603A" opacity="0.12"/>
  <text x="240" y="478" font-family="serif" font-size="20" fill="#C04020" text-anchor="middle">తిథి</text>
  <rect x="340" y="450" width="200" height="44" rx="22" fill="#D4603A" opacity="0.12"/>
  <text x="440" y="478" font-family="serif" font-size="20" fill="#C04020" text-anchor="middle">నక్షత్రం</text>
  <rect x="560" y="450" width="180" height="44" rx="22" fill="#D4603A" opacity="0.12"/>
  <text x="650" y="478" font-family="serif" font-size="20" fill="#C04020" text-anchor="middle">పండుగలు</text>
  <rect x="760" y="450" width="200" height="44" rx="22" fill="#D4603A" opacity="0.12"/>
  <text x="860" y="478" font-family="serif" font-size="20" fill="#C04020" text-anchor="middle">పితృ స్మరణ</text>
  <text x="600" y="570" font-family="monospace" font-size="22" fill="#8B4020" opacity="0.7" text-anchor="middle">telugupanchangam.app</text>
  <rect x="510" y="585" width="180" height="28" rx="14" fill="#167040" opacity="0.1"/>
  <text x="600" y="604" font-family="Georgia, serif" font-size="16" fill="#167040" text-anchor="middle">Free · Open Source · MIT</text>
</svg>
